<?xml version="1.0" encoding="UTF-8"?>
<svg version="1.1" xmlns="http://www.w3.org/2000/svg" width="320" height="320">
<path d="M0 0 C1.04736328 -0.02900391 2.09472656 -0.05800781 3.17382812 -0.08789062 C12.52307443 -0.16342835 20.99345292 1.92095797 27.9609375 8.4921875 C32.04695489 13.52944703 33.82624765 19.10928893 33.4375 25.5625 C32.33968923 32.57751085 28.33796003 36.46883339 23.4375 41.3125 C24.6440625 41.26609375 25.850625 41.2196875 27.09375 41.171875 C28.70830836 41.13432713 30.32289378 41.09793023 31.9375 41.0625 C32.72898437 41.02898437 33.52046875 40.99546875 34.3359375 40.9609375 C41.18545555 40.84865032 46.20734053 42.58120686 51.4609375 47.0234375 C56.19954515 52.85767698 57.9384366 57.93384031 57.74609375 65.48046875 C56.47454911 77.14970754 50.82665022 86.72877466 44.4375 96.3125 C45.15035156 97.0859375 45.86320312 97.859375 46.59765625 98.65625 C51.49546465 103.97954534 56.37142456 109.3117182 61.09765625 114.7890625 C62.16637904 116.00422835 63.2932106 117.1682106 64.4375 118.3125 C64.4375 119.3025 64.4375 120.2925 64.4375 121.3125 C59.93862115 121.57547403 55.44172868 121.73424285 50.9375 121.875 C49.03484375 121.98811523 49.03484375 121.98811523 47.09375 122.10351562 C37.76723646 122.32210579 37.76723646 122.32210579 33.74609375 119.26904297 C31.76333181 117.03843578 30.03831943 114.8281184 28.4375 112.3125 C23.29812948 113.4643081 18.97040567 116.07602172 14.3359375 118.5234375 C6.33959923 122.392431 -1.28419222 123.82145399 -10.125 123.75 C-11.00607422 123.76998047 -11.88714844 123.78996094 -12.79492188 123.81054688 C-21.69264824 123.80398029 -30.04826386 120.48388161 -36.5625 114.3125 C-44.10795288 104.92414849 -45.55220906 96.22612277 -44.5625 84.3125 C-42.15305416 74.08604522 -35.93455063 66.9059945 -27.61328125 60.85546875 C-25.75208175 59.4551377 -24.16019662 58.00149357 -22.5625 56.3125 C-23.8928125 54.9203125 -23.8928125 54.9203125 -25.25 53.5 C-31.66901567 46.04664057 -34.96940066 36.86151663 -34.83984375 27.1015625 C-34.12690754 19.93203499 -31.36741429 13.08671828 -26.41015625 7.8125 C-18.32263097 1.24672895 -10.03028909 0.09025455 0 0 Z M-12.9375 15.875 C-15.44546978 21.18032068 -15.7259933 26.02898764 -13.75 31.60546875 C-10.47670168 38.02704358 -5.51332219 43.14595571 -0.5625 48.3125 C6.61373793 45.01284758 11.53832822 40.4038602 14.4375 32.9375 C16.12412185 26.91979982 15.57862676 21.13528724 13.25 15.375 C10.30662343 12.02564045 7.49181476 10.55634549 3.03515625 10.02734375 C-3.73312196 9.79325292 -8.18653973 10.74896392 -12.9375 15.875 Z M7.4375 53.3125 C7.4375 56.87188854 7.92521147 57.21832162 10.25 59.75 C11.20712891 60.80380859 11.20712891 60.80380859 12.18359375 61.87890625 C12.92738281 62.68199219 13.67117187 63.48507813 14.4375 64.3125 C15.76140821 65.75984025 17.08530588 67.20719017 18.40893555 68.65478516 C19.81964844 70.19530621 21.23388544 71.7325356 22.6484375 73.26953125 C25.98575973 76.90173123 29.27649572 80.57527279 32.5625 84.25390625 C34.14510522 85.9914749 35.75777544 87.66951942 37.4375 89.3125 C41.07678369 81.05912449 43.42704822 72.83438802 40.70703125 63.91796875 C38.10303866 58.18918505 34.16089782 54.85389866 28.4375 52.3125 C21.19326348 50.71127838 14.58378096 51.66858366 7.4375 53.3125 Z M-16.5625 64.3125 C-22.25744261 70.29949095 -24.71071098 75.40419116 -25 83.6875 C-24.77857132 92.45406285 -21.81875938 99.19842834 -15.5625 105.3125 C-9.27284559 109.22941053 -3.02103907 111.18928751 4.4375 110.3125 C12.82522379 108.22870043 12.82522379 108.22870043 20.4375 104.3125 C19.09750502 101.305682 17.63904709 99.31487391 15.25 97.0625 C12.84308542 94.72435441 10.55777956 92.36092283 8.375 89.8125 C4.22873915 84.99565938 -0.13785027 80.38789669 -4.50024414 75.76757812 C-7.22850254 72.86612704 -9.87743553 69.96147246 -12.3671875 66.8515625 C-13.09164062 66.01367188 -13.81609375 65.17578125 -14.5625 64.3125 C-15.2225 64.3125 -15.8825 64.3125 -16.5625 64.3125 Z " fill="#EB1700" transform="translate(154.5625,97.6875)"/>
<path d="M0 0 C3.64581687 -0.02887512 7.29160463 -0.04675585 10.9375 -0.0625 C11.97841797 -0.07087891 13.01933594 -0.07925781 14.09179688 -0.08789062 C15.08115234 -0.09111328 16.07050781 -0.09433594 17.08984375 -0.09765625 C18.46450806 -0.10551147 18.46450806 -0.10551147 19.86694336 -0.11352539 C22 0 22 0 23 1 C23.10573618 3.51763836 23.14678117 6.00797915 23.14526367 8.52636719 C23.14862228 9.31517776 23.1519809 10.10398834 23.15544128 10.91670227 C23.16499266 13.54344228 23.16689748 16.17011866 23.16796875 18.796875 C23.17118202 20.62518337 23.17454615 22.45349149 23.17805481 24.28179932 C23.18405901 28.12879022 23.18589375 31.97575864 23.18530273 35.82275391 C23.18520185 40.72140851 23.1987708 45.61991572 23.21607494 50.51853561 C23.22727729 54.30383954 23.22921932 58.089109 23.22869301 61.8744278 C23.22986396 63.6778946 23.23423532 65.48136257 23.24202538 67.28481293 C23.36966864 99.93146654 23.36966864 99.93146654 11.921875 112.2109375 C1.47711588 121.93390432 -10.35609411 121.60488675 -23.90234375 121.38671875 C-33.21796081 120.99425853 -39.93589759 118.15520324 -47 112 C-48.6953125 109.95703125 -48.6953125 109.95703125 -50.125 107.8125 C-50.60195313 107.11769531 -51.07890625 106.42289062 -51.5703125 105.70703125 C-55.47013042 98.32294978 -56.4245081 91.72062914 -56.1875 83.4375 C-56.17396484 82.52419922 -56.16042969 81.61089844 -56.14648438 80.66992188 C-56.11155315 78.44596741 -56.06251586 76.22332048 -56 74 C-53.08503169 73.1602972 -50.1682814 72.32803997 -47.25 71.5 C-46.0125 71.14228516 -46.0125 71.14228516 -44.75 70.77734375 C-43.95078125 70.55175781 -43.1515625 70.32617188 -42.328125 70.09375 C-41.5949707 69.88427734 -40.86181641 69.67480469 -40.10644531 69.45898438 C-38 69 -38 69 -34 69 C-33.9906543 69.74048584 -33.98130859 70.48097168 -33.97167969 71.24389648 C-33.91755399 74.64240652 -33.83398888 78.03960202 -33.75 81.4375 C-33.73582031 82.60216797 -33.72164062 83.76683594 -33.70703125 84.96679688 C-33.48633478 92.80152157 -32.8271205 100.28885285 -26.9375 106 C-22.06505936 108.51480807 -17.35878957 108.45144249 -12 108 C-6.7768355 106.25894517 -4.63434571 103.78084962 -2 99 C-1.15566964 96.25550552 -0.86830202 93.77661834 -0.84178162 90.91241455 C-0.8319928 90.10757126 -0.82220398 89.30272797 -0.81211853 88.47349548 C-0.80348534 87.1625869 -0.80348534 87.1625869 -0.79467773 85.82519531 C-0.78477814 84.898022 -0.77487854 83.97084869 -0.76467896 83.01557922 C-0.7331095 79.9531204 -0.70832446 76.89064606 -0.68359375 73.828125 C-0.6630203 71.70391437 -0.64202372 69.5797078 -0.62062073 67.45550537 C-0.56544051 61.86602059 -0.51601333 56.2764991 -0.46777344 50.68695068 C-0.41752888 44.9826735 -0.36185823 39.27844958 -0.30664062 33.57421875 C-0.19910857 22.382858 -0.09765256 11.191451 0 0 Z " fill="#EB1700" transform="translate(72,100)"/>
<path d="M0 0 C7.26 0 14.52 0 22 0 C22.11328673 12.17919483 22.20488076 24.35803558 22.25906086 36.53763962 C22.28507408 42.19407593 22.32032048 47.85013081 22.37719727 53.50634766 C22.43181263 58.97233034 22.46148267 64.43794779 22.47438622 69.90418243 C22.48357328 71.98205559 22.50151274 74.0599104 22.52865028 76.13762665 C22.68923468 88.95034274 22.5448993 99.55081377 14.8125 110.375 C5.50791292 119.05928128 -3.78733471 121.36036854 -16.1875 121.375 C-17.26064453 121.39949219 -18.33378906 121.42398438 -19.43945312 121.44921875 C-30.88021682 121.49074602 -39.5350472 118.5453402 -47.83203125 110.578125 C-53.04053115 104.38423323 -56.15242707 96.55920688 -56.09765625 88.453125 C-56.09443359 87.60878906 -56.09121094 86.76445312 -56.08789062 85.89453125 C-56.07951172 85.02183594 -56.07113281 84.14914063 -56.0625 83.25 C-56.05798828 82.36183594 -56.05347656 81.47367187 -56.04882812 80.55859375 C-56.037074 78.37232671 -56.02064249 76.18619821 -56 74 C-53.08503169 73.1602972 -50.1682814 72.32803997 -47.25 71.5 C-46.0125 71.14228516 -46.0125 71.14228516 -44.75 70.77734375 C-43.95078125 70.55175781 -43.1515625 70.32617188 -42.328125 70.09375 C-41.5949707 69.88427734 -40.86181641 69.67480469 -40.10644531 69.45898438 C-38 69 -38 69 -34 69 C-33.98541748 69.6798999 -33.97083496 70.3597998 -33.95581055 71.06030273 C-33.8806358 74.18656282 -33.78420768 77.31183482 -33.6875 80.4375 C-33.66494141 81.50677734 -33.64238281 82.57605469 -33.61914062 83.67773438 C-33.35174199 91.6267666 -32.72193983 98.73367221 -27.5 105 C-22.79039969 108.76768025 -17.78443537 108.49632441 -12 108 C-7.27522669 106.33757976 -4.74836841 104.17344833 -2 100 C-1.13852698 97.24841675 -0.86811903 94.74899091 -0.84178162 91.87445068 C-0.82709839 90.65456451 -0.82709839 90.65456451 -0.81211853 89.41003418 C-0.80636307 88.52674438 -0.8006076 87.64345459 -0.79467773 86.73339844 C-0.78477814 85.79647156 -0.77487854 84.85954468 -0.76467896 83.89422607 C-0.73310746 80.79930137 -0.70832365 77.70436131 -0.68359375 74.609375 C-0.66302047 72.46274417 -0.6420239 70.31611735 -0.62062073 68.16949463 C-0.56543869 62.52082575 -0.51601231 56.87212054 -0.46777344 51.22338867 C-0.41753021 45.45878874 -0.36185886 39.69424154 -0.30664062 33.9296875 C-0.19910632 22.61983504 -0.09815243 11.30993777 0 0 Z " fill="#EB1700" transform="translate(282,100)"/>
</svg>
